<svg id="visual" viewBox="0 0 900 600" width="900" height="600" xmlns="http://www.w3.org/2000/svg" xmlns:xlink="http://www.w3.org/1999/xlink" version="1.1"><rect x="0" y="0" width="900" height="600" fill="#3d3e42"></rect><path d="M0 417L18.8 410.8C37.7 404.7 75.3 392.3 112.8 410.8C150.3 429.3 187.7 478.7 225.2 497C262.7 515.3 300.3 502.7 337.8 493.8C375.3 485 412.7 480 450.2 474.2C487.7 468.3 525.3 461.7 562.8 465.5C600.3 469.3 637.7 483.7 675.2 497C712.7 510.3 750.3 522.7 787.8 519.7C825.3 516.7 862.7 498.3 881.3 489.2L900 480L900 601L881.3 601C862.7 601 825.3 601 787.8 601C750.3 601 712.7 601 675.2 601C637.7 601 600.3 601 562.8 601C525.3 601 487.7 601 450.2 601C412.7 601 375.3 601 337.8 601C300.3 601 262.7 601 225.2 601C187.7 601 150.3 601 112.8 601C75.3 601 37.7 601 18.8 601L0 601Z" fill="#31333b" stroke-linecap="round" stroke-linejoin="miter"></path></svg>