<svg id="visual" viewBox="0 0 900 600" width="900" height="600" xmlns="http://www.w3.org/2000/svg" xmlns:xlink="http://www.w3.org/1999/xlink" version="1.1"><rect x="0" y="0" width="900" height="600" fill="#31333b"></rect><path d="M0 348L21.5 350.5C43 353 86 358 128.8 358.2C171.7 358.3 214.3 353.7 257.2 339.3C300 325 343 301 385.8 291.8C428.7 282.7 471.3 288.3 514.2 300.8C557 313.3 600 332.7 642.8 347.5C685.7 362.3 728.3 372.7 771.2 377C814 381.3 857 379.7 878.5 378.8L900 378L900 601L878.5 601C857 601 814 601 771.2 601C728.3 601 685.7 601 642.8 601C600 601 557 601 514.2 601C471.3 601 428.7 601 385.8 601C343 601 300 601 257.2 601C214.3 601 171.7 601 128.8 601C86 601 43 601 21.5 601L0 601Z" fill="#ffc86a"></path><path d="M0 326L21.5 323.5C43 321 86 316 128.8 320.8C171.7 325.7 214.3 340.3 257.2 349.2C300 358 343 361 385.8 361.2C428.7 361.3 471.3 358.7 514.2 365.8C557 373 600 390 642.8 394C685.7 398 728.3 389 771.2 390.3C814 391.7 857 403.3 878.5 409.2L900 415L900 601L878.5 601C857 601 814 601 771.2 601C728.3 601 685.7 601 642.8 601C600 601 557 601 514.2 601C471.3 601 428.7 601 385.8 601C343 601 300 601 257.2 601C214.3 601 171.7 601 128.8 601C86 601 43 601 21.5 601L0 601Z" fill="#ec927b"></path><path d="M0 373L21.5 381C43 389 86 405 128.8 415.3C171.7 425.7 214.3 430.3 257.2 425C300 419.7 343 404.3 385.8 397C428.7 389.7 471.3 390.3 514.2 395.3C557 400.3 600 409.7 642.8 417.8C685.7 426 728.3 433 771.2 435.3C814 437.7 857 435.3 878.5 434.2L900 433L900 601L878.5 601C857 601 814 601 771.2 601C728.3 601 685.7 601 642.8 601C600 601 557 601 514.2 601C471.3 601 428.7 601 385.8 601C343 601 300 601 257.2 601C214.3 601 171.7 601 128.8 601C86 601 43 601 21.5 601L0 601Z" fill="#b27184"></path><path d="M0 453L21.5 456.8C43 460.7 86 468.3 128.8 470.3C171.7 472.3 214.3 468.7 257.2 472.8C300 477 343 489 385.8 496.3C428.7 503.7 471.3 506.3 514.2 509.2C557 512 600 515 642.8 515.7C685.7 516.3 728.3 514.7 771.2 513.7C814 512.7 857 512.3 878.5 512.2L900 512L900 601L878.5 601C857 601 814 601 771.2 601C728.3 601 685.7 601 642.8 601C600 601 557 601 514.2 601C471.3 601 428.7 601 385.8 601C343 601 300 601 257.2 601C214.3 601 171.7 601 128.8 601C86 601 43 601 21.5 601L0 601Z" fill="#6c5a70"></path><path d="M0 553L21.5 545.5C43 538 86 523 128.8 522.2C171.7 521.3 214.3 534.7 257.2 539.8C300 545 343 542 385.8 534C428.7 526 471.3 513 514.2 512.2C557 511.3 600 522.7 642.8 530.5C685.7 538.3 728.3 542.7 771.2 543.8C814 545 857 543 878.5 542L900 541L900 601L878.5 601C857 601 814 601 771.2 601C728.3 601 685.7 601 642.8 601C600 601 557 601 514.2 601C471.3 601 428.7 601 385.8 601C343 601 300 601 257.2 601C214.3 601 171.7 601 128.8 601C86 601 43 601 21.5 601L0 601Z" fill="#3d3e42"></path></svg>