<svg id="visual" viewBox="0 0 900 600" width="900" height="600" xmlns="http://www.w3.org/2000/svg" xmlns:xlink="http://www.w3.org/1999/xlink" version="1.1"><rect x="0" y="0" width="900" height="600" fill="#31333b"></rect><path d="M0 373L21.5 377C43 381 86 389 128.8 400C171.7 411 214.3 425 257.2 419.3C300 413.7 343 388.3 385.8 381.2C428.7 374 471.3 385 514.2 393.2C557 401.3 600 406.7 642.8 413C685.7 419.3 728.3 426.7 771.2 428.8C814 431 857 428 878.5 426.5L900 425L900 601L878.5 601C857 601 814 601 771.2 601C728.3 601 685.7 601 642.8 601C600 601 557 601 514.2 601C471.3 601 428.7 601 385.8 601C343 601 300 601 257.2 601C214.3 601 171.7 601 128.8 601C86 601 43 601 21.5 601L0 601Z" fill="#ffc86a"></path><path d="M0 411L21.5 415.3C43 419.7 86 428.3 128.8 428.2C171.7 428 214.3 419 257.2 416.2C300 413.3 343 416.7 385.8 422.8C428.7 429 471.3 438 514.2 447.8C557 457.7 600 468.3 642.8 470.8C685.7 473.3 728.3 467.7 771.2 453.5C814 439.3 857 416.7 878.5 405.3L900 394L900 601L878.5 601C857 601 814 601 771.2 601C728.3 601 685.7 601 642.8 601C600 601 557 601 514.2 601C471.3 601 428.7 601 385.8 601C343 601 300 601 257.2 601C214.3 601 171.7 601 128.8 601C86 601 43 601 21.5 601L0 601Z" fill="#ec927b"></path><path d="M0 461L21.5 464.7C43 468.3 86 475.7 128.8 483.7C171.7 491.7 214.3 500.3 257.2 494.2C300 488 343 467 385.8 460.2C428.7 453.3 471.3 460.7 514.2 465.5C557 470.3 600 472.7 642.8 477.8C685.7 483 728.3 491 771.2 485.5C814 480 857 461 878.5 451.5L900 442L900 601L878.5 601C857 601 814 601 771.2 601C728.3 601 685.7 601 642.8 601C600 601 557 601 514.2 601C471.3 601 428.7 601 385.8 601C343 601 300 601 257.2 601C214.3 601 171.7 601 128.8 601C86 601 43 601 21.5 601L0 601Z" fill="#b27184"></path><path d="M0 486L21.5 490.7C43 495.3 86 504.7 128.8 511.3C171.7 518 214.3 522 257.2 518.2C300 514.3 343 502.7 385.8 504.3C428.7 506 471.3 521 514.2 520.3C557 519.7 600 503.3 642.8 494.5C685.7 485.7 728.3 484.3 771.2 484C814 483.7 857 484.3 878.5 484.7L900 485L900 601L878.5 601C857 601 814 601 771.2 601C728.3 601 685.7 601 642.8 601C600 601 557 601 514.2 601C471.3 601 428.7 601 385.8 601C343 601 300 601 257.2 601C214.3 601 171.7 601 128.8 601C86 601 43 601 21.5 601L0 601Z" fill="#6c5a70"></path><path d="M0 546L21.5 545.3C43 544.7 86 543.3 128.8 544.7C171.7 546 214.3 550 257.2 555.2C300 560.3 343 566.7 385.8 569C428.7 571.3 471.3 569.7 514.2 565.2C557 560.7 600 553.3 642.8 549.8C685.7 546.3 728.3 546.7 771.2 549C814 551.3 857 555.7 878.5 557.8L900 560L900 601L878.5 601C857 601 814 601 771.2 601C728.3 601 685.7 601 642.8 601C600 601 557 601 514.2 601C471.3 601 428.7 601 385.8 601C343 601 300 601 257.2 601C214.3 601 171.7 601 128.8 601C86 601 43 601 21.5 601L0 601Z" fill="#3d3e42"></path></svg>